<svg xmlns="http://www.w3.org/2000/svg"  viewBox="0 0 512 512" width="48px" height="48px"><path fill="#14B6B9" d="M221.7,156.5c12.1-5.8,26-6.6,39.2-6.7V87.4c-11.6-0.6-23.2-0.3-34.9-0.7c-3.9-0.1-7.7-0.2-11.6-0.2c-1.8,0-3.7,0-5.5,0.1c-0.6,0-1.1,0.1-1.7,0.1c-0.5,0.3-0.9,0.5-1.5,0.7c-0.4,11.5-3.2,23.1-10.3,32.5c-7.5,9.8-19.7,16.5-32.1,17c-14,0.5-29.7-3.1-40.6-12.5c-11.3-9.8-8.6-22.4-8.8-35.4c-17.4,0.8-34.6,3.6-52.1,3.1c0.6,25,4.8,49.8,4.9,74.8c0,1.5-0.5,2.6-1.2,3.6c-0.2,2.3-1.8,4.4-4.9,4.4c-10.4-0.1-20.6-0.1-28.3,8c-4.5,4.8-7.3,11-6.1,17.6c2.5,14,17.3,17.3,31.1,18.5c3.2-2,8.3-0.9,8.4,4c0.1,11.5,2.3,22.8,2.9,34.3c2.7,0.3,5.7-0.1,8.1-0.3c4.1-0.3,8.2-0.9,12.2-1c6.9-0.3,13.9-0.1,20.8-0.1c3.5,0,5.5,2.7,5.7,5.4c0.1,0.6,0.2,1.3,0.1,2.1c-1.1,8.8-1.6,17.8,5.7,24.2c8.9,7.8,20.5,12.6,32.4,12.4c10.4-0.1,21.4-3.1,27.9-11.8c3.3-4.5,4-8.7,3.8-14.1c-0.2-4.6-0.2-9.1,1.9-13.2c0.9-1.8,2.3-2.7,3.9-2.9c1.4-3.9,6.6-3.8,9.1-1c0.2,0,0.3,0,0.5,0c0.6,0,1.1,0,1.7,0c1.6,0,3.2-0.1,4.7-0.1c6-0.1,12,0.4,18,0.7c11,0.5,22.1,0.3,33.1,0.3c0.9-12.6-1-25.3-1.4-37.9c-21,0.1-52.7-3.9-56.1-27.9C198.9,176.9,208.4,162.9,221.7,156.5z"/><path fill="#71C598" d="M300.2,355.9c-9-4.3-19.6-4.1-29.4-4.1c-2.1,0-3.7-1-4.6-2.4c-1.9-0.5-3.4-2-3.3-4.7c0.8-25.3-3.5-50.4-4-75.7c-0.2-0.1-0.3-0.2-0.5-0.3c-15.3-0.1-30.5-0.6-45.8-0.9c-3.9-0.1-10.9,0.8-16-0.5c-1.6,5.2,0.5,11.7-0.9,17c-1.6,5.9-5.1,11-9.5,15.1c-9.8,9.1-23.3,12.3-36.4,11.3c-14.1-1.1-28.8-7-38.4-17.7c-6.8-7.6-7.8-16.8-7.1-26.3c-5.9-0.1-11.9-0.2-17.7,0.3c-5.7,0.5-12.6,1.8-18.8,1.1c0.2,24,1.7,48.1,1.9,72.1c18.9,2,41.8,10,38.7,33.2c-1.6,11.8-8.8,21.2-20.4,24.7c-8.9,2.7-18,2.7-27.2,2.7v66c10.3,0,20.6,0.1,31-0.3c8.2-0.3,16.5-0.6,24.5,1.2c1-7.1,3.9-13.7,9.6-18.8c7-6.3,16.6-9.3,25.9-10c10.6-0.8,21.1,0,30,6.5c7.4,5.5,12.7,13.2,17,21.3H261c0.4,0,0.8,0,1.1,0.1c0.1-0.1,0.1-0.2,0.2-0.2c1.1-1.7,0.8-7.4,0.7-9.9c-0.1-4.7-0.5-9.4-0.8-14.1c-0.8-12.1-0.3-24.4-0.2-36.5c-1.8-3.2-0.7-8.2,4.1-8.4c13-0.7,42,1.4,44.7-16.5C312.2,371.8,309.5,360.3,300.2,355.9z"/><path fill="#74CCCF" d="M464.1,97.6c-0.3-2.5-0.6-5-1.4-7.3c-0.4-1.1-0.6-1.6-0.9-2c-0.1-0.1-0.1-0.2-0.2-0.2c-0.6-0.4-1-0.8-1.4-1.2h-40.4c-1.1,0-2-0.3-2.8-0.7c-3.1,1.4-7.6,0-8.1-4.4c-1.8-15.5-10.1-29.1-27.4-29C367,52.9,351.2,63,349.9,78.2c1.3,0.7,2.3,1.8,2.7,3.3c1.3,5.7-5.7,9.2-9,6.2c-0.7-0.1-1.3-0.2-2-0.3c-2.9-0.4-5.9-0.6-8.8-0.8c-8.2-0.6-16.5-0.8-24.7-0.9c-8.6-0.1-17.3-0.1-25.9,0.3c-3.2,0.2-6.5,0.3-9.7,0.7c-0.2,0-0.4,0.1-0.6,0.1v68.2c0,3.6-2.8,5.6-5.6,5.7c-0.4,0.1-0.9,0.2-1.4,0.2c-12.1,0-25,0-36.4,4.7c-10,4.1-18.7,14.1-16.5,25.7c1.7,9.1,12.6,13.2,20.5,15.1c9.7,2.3,19.6,3,29.6,2.5c3-0.1,4.8,1.7,5.5,4c0.3,0.6,0.4,1.3,0.4,2.1c0.1,14.6,2.4,29.3,1.4,43.9c17.1-0.2,34.2-0.8,51.4-0.9c-0.2-4.8-0.4-9.6,1.3-14.1c2-5.3,5.8-10.5,10.7-13.6c8.7-5.7,19.6-7.8,30-7.2c19.3,1.1,33.2,16.1,35,34.4c8.1-2.1,16.8-1.4,25.2-1.3c5.7,0.1,11.5-0.1,17.2-0.7c3.6-0.4,7.3-1,10.9-1.5c0.5-0.1,1.2,0,1.9,0c0.8-1,2.1-1.6,3.5-1.8c1.2-12.7-1.1-25.6-1.4-38.3c-11.9-1.8-25-2.5-34.6-10.2c-7.6-6-11.9-15.3-11.4-25c0.4-10.1,5.7-19.8,14.2-25.4c12.2-8,26.2-6,39.9-5.5c0.3-10,1.4-20,1.6-30C464.8,111,464.8,104.2,464.1,97.6z"/><path d="M466.9,78.4c-0.1,0-0.1-0.1-0.2-0.1c-1-1.4-2.5-2.5-4.7-2.5h-42.8c-1.4-7.9-4.1-15.6-9.4-21.8c-7-8.2-17.2-11.9-27.7-12.2c-20.1-0.6-40.4,14.2-42.9,34.3c-8.8-0.8-17.7-1.1-26.6-1.3c-9.8-0.2-19.6-0.3-29.4,0.1c-5.5,0.2-12.2,0-17.6,1.9c-14.7-1-29.4-0.7-44.1-1.1c-4.9-0.1-9.9-0.3-14.8,0.1c-3.1,0.2-6.5,1.9-7.6,4.5c-2.2,0.7-4.1,2.5-4.1,5.4c-0.2,19.8-10.8,38.8-32.3,40.2c-11.3,0.7-23.6-2.7-32.4-9.8c-8.6-6.9-5.1-19.6-5.2-29.5c2-3.2,0.1-8.9-5-8.8c-21.2,0.1-42.3,4.9-63.5,3.1C51,80.5,48.5,86.8,51,90c0.3,24.7,4.4,49.1,4.9,73.8c-5,0-9.8,0.1-14.8,1.4c-5.4,1.4-11,5.1-15.1,8.8c-7.2,6.5-11.2,15.6-10.7,25.3c0.5,9.9,6.7,18,14.7,23.3c7.3,4.8,16.3,6.3,25.2,7.1c0.7,10.6,2.6,21.1,2.8,31.8c-0.6,0.9-1,2-1,3.3c0,26.7,2,53.3,2,80c0,0.4,0,0.8,0.1,1.2c-0.1,2.4,1.2,4.6,4.3,4.8c12.6,0.7,36,3,34.4,20.6C95.9,390.9,74,390,58.9,389.8c-3.2-2.1-9-0.2-9,4.9v74c0,0.7,0.1,1.3,0.3,1.8c-0.7,3.2,1.3,7.2,5.6,7.2c10.8,0,21.5,0.2,32.3-0.1c9.4-0.3,19.8-1.8,28.8,1.5c1.1,0.4,2.1,0.5,3,0.3c3.2,0.6,7.1-1.4,6.9-5.7c-0.4-16.1,12.6-22.9,27-24c8.3-0.7,16,0.2,22.7,5.5c5.4,4.3,9.3,10.4,12.6,16.6c0.1,2.2,1.2,4.4,3.4,5.3c1.1,0.8,2.4,0.9,3.7,0.5h62.2c2.5,1.7,6.1,0.9,7.7-1.8c1.6,0.3,3.2-0.3,4.5-2.1c5.5-7.9,3.5-19.8,2.8-28.8c-0.9-12.2-0.6-24.4-0.5-36.6c20-1,46.3-3.3,48.9-27.3c1.5-13.5-3.2-26.9-14.9-34.2c-9.5-5.9-21.9-6.2-32.9-6.2c0.4-23.8-3.4-47.3-4-71.1c19-0.2,37.9-0.9,56.9-1c3.5,0,5-2.7,4.9-5.3c0.1-0.5,0.2-1,0.2-1.6c-0.1-4.4-0.7-8.7,0-13.1c0.8-4.4,4.5-8,8.1-10.3c6.3-4.1,14.9-4.8,22.2-4.7c15.4,0.3,24.4,13.9,24.7,28v2c0,3.3,2.3,4.9,4.8,4.9c1.6,1,3.7,1.3,5.8,0.2c4.7-2.4,10.8-2.1,15.8-2.1c6.2,0,12.3,0.5,18.5,0c3.6-0.3,7.3-0.3,10.9-0.7c3.5-0.4,7.2-1.5,10.8-1c3.8,0.6,7.2-0.6,8.7-3.4c2.2-0.1,4.2-1.5,4.7-4.3c2.2-14.9-0.6-30.1-0.9-45.1c1.7-2.9,0.9-7.5-3.5-8.4c-16.2-3.4-42.7-2.4-42.6-25.1c0-7.1,4.7-13.4,10.4-17.1c10.5-6.9,25.9-3,37.6-2.8c2.5,0,4-1.3,4.6-3.1c0.9-0.9,1.4-2.2,1.5-3.8c0.1-12.8,1.6-25.6,1.8-38.4C475.8,103.4,477.3,84.4,466.9,78.4z M57.5,218.9c-13.8-1.2-28.6-4.4-31.1-18.5c-1.2-6.7,1.6-12.9,6.1-17.6c7.7-8.1,17.9-8.1,28.3-8c3.1,0,4.6-2,4.9-4.4c0.7-0.9,1.2-2.1,1.2-3.6c-0.1-25-4.3-49.8-4.9-74.8c17.4,0.4,34.7-2.4,52.1-3.1c0.2,13.1-2.5,25.6,8.8,35.4c10.9,9.4,26.5,13,40.6,12.5c12.5-0.4,24.7-7.1,32.1-17c7.1-9.3,9.8-20.9,10.3-32.5c0.5-0.2,1-0.4,1.5-0.7c0.6-0.1,1.1-0.1,1.7-0.1c1.8-0.1,3.7-0.1,5.5-0.1c3.9,0,7.7,0.1,11.6,0.2c11.6,0.3,23.3,0,34.9,0.7v62.4c-13.3,0.1-27.1,0.9-39.2,6.7c-13.3,6.3-22.8,20.4-20.7,35.5c3.3,24,35.1,28,56.1,27.9c0.5,12.6,2.3,25.3,1.4,37.9c-11,0-22.1,0.2-33.1-0.3c-6-0.3-12-0.8-18-0.7c-1.6,0-3.2,0.1-4.7,0.1c-0.6,0-1.1,0-1.7,0c-0.2,0-0.3,0-0.5,0c-2.5-2.8-7.7-2.9-9.1,1c-1.5,0.2-3,1.1-3.9,2.9c-2.1,4.2-2.1,8.7-1.9,13.2c0.2,5.4-0.5,9.6-3.8,14.1c-6.5,8.7-17.5,11.7-27.9,11.8c-11.9,0.1-23.6-4.6-32.4-12.4c-7.2-6.4-6.8-15.4-5.7-24.2c0.1-0.8,0.1-1.5-0.1-2.1c-0.2-2.7-2.2-5.4-5.7-5.4c-6.9,0-13.9-0.2-20.8,0.1c-4.1,0.2-8.2,0.7-12.2,1c-2.4,0.2-5.4,0.6-8.1,0.3c-0.5-11.5-2.8-22.8-2.9-34.3C65.8,218.1,60.7,216.9,57.5,218.9z M270.8,351.8c9.8,0,20.4-0.2,29.4,4.1c9.3,4.4,11.9,15.9,10.5,25.4c-2.7,17.9-31.7,15.9-44.7,16.5c-4.7,0.2-5.9,5.2-4.1,8.4c-0.1,12.2-0.6,24.4,0.2,36.5c0.3,4.7,0.7,9.4,0.8,14.1c0.1,2.5,0.4,8.2-0.7,9.9c-0.1,0.1-0.1,0.2-0.2,0.2c-0.4-0.1-0.8-0.1-1.1-0.1h-62.3c-4.3-8.1-9.6-15.8-17-21.3c-8.8-6.5-19.3-7.4-30-6.5c-9.3,0.7-18.8,3.7-25.9,10c-5.6,5-8.6,11.6-9.6,18.8c-8-1.8-16.3-1.5-24.5-1.2c-10.3,0.4-20.6,0.3-31,0.3v-66c9.2,0,18.3,0,27.2-2.7c11.6-3.5,18.8-12.9,20.4-24.7c3.2-23.2-19.7-31.2-38.7-33.2c-0.2-24-1.7-48-1.9-72.1c6.2,0.7,13.1-0.6,18.8-1.1c5.9-0.5,11.8-0.4,17.7-0.3c-0.7,9.5,0.3,18.7,7.1,26.3c9.5,10.8,24.3,16.7,38.4,17.7c13.1,1,26.6-2.2,36.4-11.3c4.4-4.1,7.9-9.3,9.5-15.1c1.4-5.3-0.6-11.9,0.9-17c5,1.4,12,0.4,16,0.5c15.3,0.3,30.5,0.9,45.8,0.9c0.1,0.1,0.3,0.2,0.5,0.3c0.5,25.3,4.8,50.4,4,75.7c-0.1,2.6,1.4,4.2,3.3,4.7C267.2,350.8,268.7,351.8,270.8,351.8z M464.6,117.7c-0.2,10-1.3,20-1.6,30c-13.7-0.5-27.7-2.5-39.9,5.5c-8.5,5.6-13.8,15.3-14.2,25.4c-0.4,9.7,3.9,19,11.4,25c9.6,7.7,22.7,8.3,34.6,10.2c0.3,12.7,2.7,25.7,1.4,38.3c-1.4,0.2-2.7,0.8-3.5,1.8c-0.7-0.1-1.4-0.1-1.9,0c-3.6,0.5-7.2,1.1-10.9,1.5c-5.7,0.7-11.5,0.8-17.2,0.7c-8.4-0.1-17.1-0.8-25.2,1.3c-1.8-18.4-15.8-33.3-35-34.4c-10.3-0.6-21.2,1.5-30,7.2c-4.8,3.1-8.7,8.2-10.7,13.6c-1.7,4.6-1.6,9.4-1.3,14.1c-17.1,0.1-34.2,0.7-51.4,0.9c1-14.6-1.3-29.3-1.4-43.9c0-0.8-0.2-1.5-0.4-2.1c-0.6-2.2-2.5-4.1-5.5-4c-9.9,0.4-19.9-0.2-29.6-2.5c-7.9-1.9-18.8-6-20.5-15.1c-2.2-11.6,6.5-21.5,16.5-25.7c11.3-4.7,24.3-4.7,36.4-4.7c0.5,0,1-0.1,1.4-0.2c2.8-0.2,5.6-2.1,5.6-5.7V86.7c0.2,0,0.4-0.1,0.6-0.1c3.2-0.4,6.5-0.6,9.7-0.7c8.6-0.4,17.3-0.4,25.9-0.3c8.2,0.1,16.5,0.4,24.7,0.9c2.9,0.2,5.9,0.5,8.8,0.8c0.7,0.1,1.3,0.2,2,0.3c3.2,3,10.2-0.5,9-6.2c-0.3-1.5-1.3-2.6-2.7-3.3c1.3-15.1,17.1-25.3,31.6-25.4c17.3-0.1,25.6,13.5,27.4,29c0.5,4.4,5,5.7,8.1,4.4c0.8,0.4,1.7,0.7,2.8,0.7h40.4c0.4,0.5,0.8,0.9,1.4,1.2c0,0,0.1,0.1,0.2,0.2c0.3,0.4,0.5,0.9,0.9,2c0.8,2.4,1.1,4.9,1.4,7.3C464.8,104.2,464.8,111,464.6,117.7z"/></svg>